<?xml version="1.0" encoding="utf-8"?>
<!-- Generator: Adobe Illustrator 16.0.0, SVG Export Plug-In . SVG Version: 6.00 Build 0)  -->
<!DOCTYPE svg PUBLIC "-//W3C//DTD SVG 1.1//EN" "http://www.w3.org/Graphics/SVG/1.1/DTD/svg11.dtd">
<svg version="1.1" id="Layer_1" xmlns="http://www.w3.org/2000/svg" xmlns:xlink="http://www.w3.org/1999/xlink" x="0px" y="0px"
	 width="270px" height="40px" viewBox="0 0 270 40" enable-background="new 0 0 270 40" xml:space="preserve">
<g>
	<g>
		<g>
			<circle fill="#9E81BA" cx="65.251" cy="19.999" r="19.693"/>
			<circle fill="#FFFFFF" cx="65.25" cy="19.999" r="8.926"/>
		</g>
		<g>
			<circle fill="#C8D731" cx="110.807" cy="19.999" r="19.693"/>
			<polygon fill="#FFFFFF" points="116.65,29.894 104.963,10.105 116.65,10.105 104.963,29.894 			"/>
		</g>
		<g>
			<circle fill="#21A7E0" cx="19.694" cy="20" r="19.694"/>
			<polygon fill="#FFFFFF" points="26.227,10.209 19.772,29.791 13.159,10.209 			"/>
		</g>
	</g>
	<g>
		<path d="M151.438,29.894V10.976h4.012v18.917H151.438z"/>
		<path d="M168.222,29.894l-4.555-14.842h-0.117c0.164,3.02,0.246,5.034,0.246,6.043v8.799h-3.584V10.976h5.461l4.477,14.466h0.078
			l4.748-14.466h5.461v18.917h-3.74v-8.954c0-0.422,0.007-0.91,0.02-1.462c0.014-0.552,0.071-2.019,0.175-4.399h-0.116
			l-4.878,14.815H168.222z"/>
		<path d="M198.266,16.876c0,2.036-0.636,3.593-1.908,4.671c-1.272,1.078-3.082,1.617-5.428,1.617h-1.721v6.729h-4.012V10.976h6.043
			c2.294,0,4.039,0.494,5.233,1.481C197.669,13.445,198.266,14.918,198.266,16.876z M189.209,19.878h1.319
			c1.233,0,2.156-0.244,2.769-0.731c0.613-0.487,0.919-1.197,0.919-2.129c0-0.94-0.257-1.634-0.77-2.083
			c-0.514-0.448-1.318-0.673-2.413-0.673h-1.824V19.878z"/>
		<path d="M201.838,29.894V10.976h4.012v15.605h7.673v3.312H201.838z"/>
		<path d="M228.39,29.894l-1.372-4.503h-6.896l-1.371,4.503h-4.322l6.677-18.995h4.904l6.702,18.995H228.39z M226.061,22.026
			c-1.269-4.08-1.982-6.388-2.142-6.923c-0.16-0.535-0.274-0.957-0.343-1.268c-0.285,1.104-1.1,3.834-2.445,8.19H226.061z"/>
		<path d="M251.874,29.894h-5.098l-8.229-14.311h-0.117c0.164,2.528,0.246,4.331,0.246,5.409v8.902h-3.584V10.976h5.06l8.216,14.168
			h0.091c-0.129-2.458-0.194-4.196-0.194-5.214v-8.954h3.61V29.894z"/>
		<path d="M263.934,29.894h-4.011V14.314h-5.138v-3.338h14.285v3.338h-5.137V29.894z"/>
	</g>
</g>
</svg>
